<?xml version="1.0" standalone="no"?>
<!DOCTYPE svg PUBLIC "-//W3C//DTD SVG 20010904//EN"
 "http://www.w3.org/TR/2001/REC-SVG-20010904/DTD/svg10.dtd">
<svg version="1.0" xmlns="http://www.w3.org/2000/svg"
 width="640.000000pt" height="1280.000000pt" viewBox="0 0 640.000000 1280.000000"
 preserveAspectRatio="xMidYMid meet">
<g transform="translate(0.000000,1280.000000) scale(0.100000,-0.100000)"
fill="#000000" stroke="none">
<path d="M3027 12668 c-121 -31 -186 -66 -271 -148 -83 -80 -124 -147 -165
-270 l-21 -66 -3 -4614 -2 -4615 -55 1 c-106 2 -248 98 -336 227 -43 65 -114
232 -135 324 -12 48 -25 102 -29 118 -5 17 -14 66 -20 110 -6 44 -15 105 -20
135 -10 57 -29 316 -36 475 -2 50 -6 592 -8 1205 l-4 1115 -25 76 c-35 111
-119 215 -217 271 -194 110 -422 85 -586 -65 -57 -52 -88 -98 -129 -197 l-27
-65 -1 -1520 c0 -836 3 -1558 7 -1605 20 -239 100 -520 204 -713 257 -480 684
-757 1251 -813 79 -7 150 -19 157 -25 11 -9 14 -169 14 -933 0 -506 0 -956 0
-998 l0 -78 630 0 630 0 0 83 c0 45 0 857 0 1803 0 1416 3 1724 14 1733 7 6
71 16 142 21 262 22 544 114 754 247 79 49 195 148 300 254 33 34 151 195 171
233 8 17 36 72 62 121 88 170 164 452 183 675 4 47 7 1014 6 2150 l0 2065 -22
55 c-60 152 -134 235 -266 301 -50 25 -81 32 -163 39 -90 8 -109 7 -169 -11
-128 -40 -202 -95 -294 -219 -15 -20 -37 -72 -49 -115 l-21 -78 -4 -1651 c-2
-908 -6 -1694 -8 -1746 -8 -186 -26 -422 -35 -478 -6 -31 -15 -93 -21 -137 -6
-44 -15 -93 -20 -110 -5 -16 -16 -64 -25 -105 -9 -41 -27 -102 -41 -135 -14
-33 -32 -77 -40 -98 -62 -166 -258 -331 -393 -332 l-56 0 -2 3810 -3 3809 -21
66 c-38 115 -77 182 -152 258 -78 80 -141 117 -253 152 -95 28 -280 32 -377 8z"/>
</g>
</svg>
